{
  "accessors": [
    {
      "bufferView": 1,
      "componentType": 5126,
      "count": 7618,
      "max": [
        1.5622400045394897,
        0.97043001651763916,
        1.0296499729156494
      ],
      "min": [
        -1.5622400045394897,
        -0.97043001651763916,
        -1.8658299446105957
      ],
      "type": "VEC3"
    },
    {
      "bufferView": 1,
      "byteOffset": 91416,
      "componentType": 5126,
      "count": 7618,
      "max": [
        0.99940299987792969,
        0.9999968409538269,
        1
      ],
      "min": [
        -0.99940299987792969,
        -0.9999968409538269,
        -1
      ],
      "type": "VEC3"
    },
    {
      "bufferView": 0,
      "componentType": 5125,
      "count": 45696,
      "max": [
        7617
      ],
      "min": [
        0
      ],
      "type": "SCALAR"
    }
  ],
  "asset": {
    "generator": "Sketchfab (OSG glTF plugin)",
    "version": "2.0"
  },
  "bufferViews": [
    {
      "buffer": 0,
      "byteLength": 182784,
      "byteOffset": 0,
      "name": "ScalarBufferView",
      "target": 34963
    },
    {
      "buffer": 0,
      "byteLength": 182832,
      "byteOffset": 182784,
      "byteStride": 12,
      "name": "Vec4BufferView",
      "target": 34962
    }
  ],
  "buffers": [
    {
      "byteLength": 365616,
      "uri": "https://cdn.glitch.com/9e27e4d1-fe45-4bb7-8440-8d447574053c%2Fscene.bin?1507588566115"
    }
  ],
  "extensionsRequired": [
    "KHR_materials_pbrSpecularGlossiness"
  ],
  "extensionsUsed": [
    "KHR_materials_pbrSpecularGlossiness"
  ],
  "materials": [
    {
      "doubleSided": true,
      "emissiveFactor": [
        0,
        0,
        0
      ],
      "extensions": {
        "KHR_materials_pbrSpecularGlossiness": {
          "diffuseFactor": [
            0.60281675152689906,
            0.0096702533438450169,
            0.0096702533438450169,
            1
          ],
          "glossinessFactor": 0,
          "specularFactor": [
            0.60999999999999999,
            0.60999999999999999,
            0.60999999999999999
          ]
        }
      },
      "name": "Material",
      "occlusionFactor": 0.59999999999999998
    }
  ],
  "meshes": [
    {
      "name": "GeodeCube",
      "primitives": [
        {
          "attributes": {
            "NORMAL": 1,
            "POSITION": 0
          },
          "indices": 2,
          "material": 0,
          "mode": 4
        }
      ]
    }
  ],
  "nodes": [
    {
      "children": [
        1
      ],
      "name": "RootNode (gltf orientation matrix)",
      "rotation": [
        -0.70710678118654746,
        -0,
        -0,
        0.70710678118654757
      ]
    },
    {
      "children": [
        2
      ],
      "name": "RootNode (model correction matrix)"
    },
    {
      "children": [
        3,
        5,
        7,
        9
      ],
      "name": "Root"
    },
    {
      "children": [
        4
      ],
      "matrix": [
        -0.29086000000000006,
        0.95517000000000007,
        -0.05519000000000001,
        0,
        -0.77110000000000001,
        -0.19988000000000003,
        0.60452000000000006,
        0,
        0.56639000000000006,
        0.21839000000000003,
        0.7946700000000001,
        0,
        4.0762500000000008,
        1.00545,
        5.9038600000000008,
        1
      ],
      "name": "Lamp"
    },
    {
      "name": "Lamp"
    },
    {
      "children": [
        6
      ],
      "matrix": [
        2.6083700000000003,
        0,
        0,
        0,
        0,
        2.6083700000000003,
        0,
        0,
        0,
        0,
        2.6083700000000003,
        0,
        0,
        0,
        0,
        1
      ],
      "name": "Cube"
    },
    {
      "mesh": 0,
      "name": "GeodeCube"
    },
    {
      "children": [
        8
      ],
      "matrix": [
        0.74654000000000009,
        0.057240000000000006,
        0.66288000000000014,
        0,
        -0.054410000000000014,
        0.99820999999999993,
        -0.024920000000000005,
        0,
        -0.66311000000000009,
        -0.017460000000000007,
        0.74831000000000003,
        0,
        -6.4798000000000009,
        -1.2172399999999999,
        6.3024999999999993,
        1
      ],
      "name": "Sun"
    },
    {
      "name": "Sun"
    },
    {
      "children": [
        10
      ],
      "matrix": [
        1,
        0,
        0,
        0,
        0,
        1,
        0,
        0,
        0,
        0,
        1,
        0,
        4.1732700000000005,
        0.42954000000000003,
        -6.0995400000000002,
        1
      ],
      "name": "Point"
    },
    {
      "name": "Point"
    }
  ],
  "scene": 0,
  "scenes": [
    {
      "name": "OSG_Scene",
      "nodes": [
        0
      ]
    }
  ]
}
